<svg id="Layer_1" data-name="Layer 1" xmlns="http://www.w3.org/2000/svg" xmlns:xlink="http://www.w3.org/1999/xlink" viewBox="0 0 1000 1000"><defs><style>.cls-1{fill:url(#linear-gradient);}.cls-2{fill:url(#linear-gradient-2);}.cls-3{fill:url(#linear-gradient-3);}.cls-4{fill:url(#linear-gradient-4);}.cls-5{fill:url(#linear-gradient-5);}.cls-6{fill:url(#linear-gradient-6);}.cls-7{fill:url(#linear-gradient-7);}.cls-8{fill:url(#linear-gradient-8);}.cls-9{fill:url(#linear-gradient-9);}.cls-10{fill:url(#linear-gradient-10);}.cls-11{fill:url(#linear-gradient-11);}.cls-12{fill:url(#linear-gradient-12);}.cls-13{fill:#0161fb;}.cls-14{fill:url(#linear-gradient-13);}.cls-15{fill:#005f73;}.cls-16{fill:url(#linear-gradient-14);}.cls-17{fill:url(#linear-gradient-15);}.cls-18{fill:url(#linear-gradient-16);}.cls-19{fill:url(#linear-gradient-17);}.cls-20{fill:url(#linear-gradient-18);}.cls-21{fill:url(#linear-gradient-19);}.cls-22{fill:#00689a;}</style><linearGradient id="linear-gradient" x1="370.06" y1="49.39" x2="370.06" y2="328.15" gradientUnits="userSpaceOnUse"><stop offset="0" stop-color="#ffd200"/><stop offset="1" stop-color="#cff300"/></linearGradient><linearGradient id="linear-gradient-2" x1="385.77" y1="39.89" x2="610.03" y2="39.89" gradientUnits="userSpaceOnUse"><stop offset="0" stop-color="#fd075f"/><stop offset="1" stop-color="#ff0937"/></linearGradient><linearGradient id="linear-gradient-3" x1="462.46" y1="46.18" x2="462.46" y2="343.93" gradientUnits="userSpaceOnUse"><stop offset="0" stop-color="#fb0500"/><stop offset="1" stop-color="#cc0100"/></linearGradient><linearGradient id="linear-gradient-4" x1="610.03" y1="187.63" x2="644.55" y2="187.63" gradientUnits="userSpaceOnUse"><stop offset="0" stop-color="#ce29ee"/><stop offset="1" stop-color="#8250fa"/></linearGradient><linearGradient id="linear-gradient-5" x1="610.06" y1="46.18" x2="610.06" y2="343.88" gradientUnits="userSpaceOnUse"><stop offset="0" stop-color="#cb0234"/><stop offset="1" stop-color="#821117"/></linearGradient><linearGradient id="linear-gradient-6" x1="644.55" y1="300" x2="925.26" y2="300" gradientUnits="userSpaceOnUse"><stop offset="0" stop-color="#ff3815"/><stop offset="1" stop-color="#ff7d00"/></linearGradient><linearGradient id="linear-gradient-7" x1="646.99" y1="310.14" x2="900.52" y2="310.14" gradientUnits="userSpaceOnUse"><stop offset="0" stop-color="#923802"/><stop offset="1" stop-color="#696e00"/></linearGradient><linearGradient id="linear-gradient-8" x1="579.26" y1="763.6" x2="1056.05" y2="488.32" gradientUnits="userSpaceOnUse"><stop offset="0" stop-color="#0076ff"/><stop offset="0.6" stop-color="#675fff"/><stop offset="1" stop-color="#cf29ee"/></linearGradient><linearGradient id="linear-gradient-9" x1="711.99" y1="579.98" x2="965.37" y2="477.6" gradientUnits="userSpaceOnUse"><stop offset="0" stop-color="#00565e"/><stop offset="1" stop-color="#01426d"/></linearGradient><linearGradient id="linear-gradient-10" x1="912.75" y1="276.77" x2="976.8" y2="473.91" gradientUnits="userSpaceOnUse"><stop offset="0" stop-color="#be1800"/><stop offset="1" stop-color="#943200"/></linearGradient><linearGradient id="linear-gradient-11" x1="708.29" y1="587.99" x2="855.51" y2="842.98" gradientUnits="userSpaceOnUse"><stop offset="0" stop-color="#562c00"/><stop offset="1" stop-color="#3f5500"/></linearGradient><linearGradient id="linear-gradient-12" x1="527.15" y1="743.52" x2="664.68" y2="981.72" gradientUnits="userSpaceOnUse"><stop offset="0" stop-color="#01e176"/><stop offset="1" stop-color="#07dffd"/></linearGradient><linearGradient id="linear-gradient-13" x1="372.3" y1="812.89" x2="428.74" y2="910.64" gradientUnits="userSpaceOnUse"><stop offset="0" stop-color="#0076ff"/><stop offset="1" stop-color="#2c6cff"/></linearGradient><linearGradient id="linear-gradient-14" x1="69.44" y1="299.86" x2="354.16" y2="299.86" gradientUnits="userSpaceOnUse"><stop offset="0" stop-color="#fa0e83"/><stop offset="1" stop-color="#fe0247"/></linearGradient><linearGradient id="linear-gradient-15" x1="97.24" y1="309.98" x2="351.8" y2="309.98" gradientUnits="userSpaceOnUse"><stop offset="0" stop-color="#4f057c"/><stop offset="1" stop-color="#5c0147"/></linearGradient><linearGradient id="linear-gradient-16" x1="60.2" y1="281.06" x2="284.44" y2="971.18" gradientUnits="userSpaceOnUse"><stop offset="0" stop-color="#f7d800"/><stop offset="0.25" stop-color="#d9ed00"/><stop offset="0.5" stop-color="#7ff51f"/><stop offset="0.75" stop-color="#31e946"/><stop offset="1" stop-color="#03e09c"/></linearGradient><linearGradient id="linear-gradient-17" x1="56.21" y1="479" x2="56.21" y2="276.04" gradientUnits="userSpaceOnUse"><stop offset="0" stop-color="#d70b00"/><stop offset="1" stop-color="#f00b00"/></linearGradient><linearGradient id="linear-gradient-18" x1="43.1" y1="464.95" x2="274.07" y2="598.31" gradientUnits="userSpaceOnUse"><stop offset="0" stop-color="#276500"/><stop offset="1" stop-color="#1b661d"/></linearGradient><linearGradient id="linear-gradient-19" x1="140.9" y1="844.85" x2="289.51" y2="587.45" gradientUnits="userSpaceOnUse"><stop offset="0" stop-color="#210911"/><stop offset="1" stop-color="#7b0907"/></linearGradient></defs><path d="M965.65,460l-54.9-165.11a26.88,26.88,0,0,0-10.23-13.63q-24.49,9.3-49.68,17.53a1088.3,1088.3,0,0,1-203,45.12c-.29-1.49-.55-3-.83-4.48q-16.08,2.48-32.14,4.48a1085.33,1085.33,0,0,1-18-269,27,27,0,0,0-23.73-28.48l-144.39,1A26.93,26.93,0,0,0,402,75.77q1.71,30.35,1.74,61.14a1088.63,1088.63,0,0,1-19.82,207h0q-16.11-2-32.13-4.46c-.28,1.48-.55,3-.83,4.46h0A1085.14,1085.14,0,0,1,97.24,280.84a26.56,26.56,0,0,0-10.37,14L34.24,460.66A26.84,26.84,0,0,0,35,479l.22.07q29.38,7.76,58.68,17.23a1089.44,1089.44,0,0,1,190.77,82.83h0c-.78,1.66-1.58,3.3-2.36,5q10.14,5.32,20.15,10.83h0A1085,1085,0,0,1,158.73,823.3a26.89,26.89,0,0,0-2.54,30.38l131.4,94.1a26.91,26.91,0,0,0,27.07,2.51q14.68-22.49,30.6-44.47A1087.72,1087.72,0,0,1,449.8,782.41q23.57-25,48.36-48.21C504,739.6,510.29,744.47,516,750h0a1084.72,1084.72,0,0,1,169.8,202.65,26.88,26.88,0,0,0,23.85-4.07L843.27,850a26.85,26.85,0,0,0-3.83-27.63Q820.21,798.88,802.09,774A1089.06,1089.06,0,0,1,696.44,594.84h0c6-3.31,12-6.54,18-9.74-1-2-1.92-4-2.86-6h0a1085,1085,0,0,1,250.3-100.24,28.16,28.16,0,0,0,3.46-1.18A26.69,26.69,0,0,0,965.65,460Z"/><path class="cls-1" d="M366.14,328.15a1088.71,1088.71,0,0,0,19.82-207q0-30.79-1.74-61.14a26.67,26.67,0,0,1,1.55-10.6A26.89,26.89,0,0,0,369,75.77q1.72,30.35,1.74,61.14a1088.68,1088.68,0,0,1-16.62,189.67c4,.53,8,1.08,12,1.57Z"/><path class="cls-2" d="M569.78,46.18a26.55,26.55,0,0,1,3.35.2l29.61-.2a27,27,0,0,1,7.29,1A26.89,26.89,0,0,0,585,30.4L411,31.59a27,27,0,0,0-25.18,17.8,27,27,0,0,1,10-2Z"/><path class="cls-3" d="M569.78,46.18l-174,1.19a27,27,0,0,0-10,2A26.67,26.67,0,0,0,384.22,60q1.71,30.34,1.74,61.14a1088.71,1088.71,0,0,1-19.82,207h0c-4-.49-8-1-12-1.57Q353,333,351.8,339.47q16,2.46,32.13,4.46h0a1088.63,1088.63,0,0,0,19.82-207q0-30.78-1.74-61.14a26.93,26.93,0,0,1,26.73-28.4l144.39-1A26.55,26.55,0,0,0,569.78,46.18Z"/><path class="cls-4" d="M612,59.08a1084.37,1084.37,0,0,0,18,269q7.26-.9,14.52-1.91A1084.63,1084.63,0,0,1,629.83,74.86,27.06,27.06,0,0,0,610,47.16,27.21,27.21,0,0,1,612,59.08Z"/><path class="cls-5" d="M573.13,46.38a27,27,0,0,1,23.73,28.48,1085.33,1085.33,0,0,0,18,269q16.06-2,32.14-4.48-1.26-6.6-2.44-13.21-7.26,1-14.52,1.91a1084.37,1084.37,0,0,1-18-269,27.21,27.21,0,0,0-2-11.92,27,27,0,0,0-7.29-1Z"/><path class="cls-6" d="M817.88,298.76q29.26-9.51,57.6-20.55a26.78,26.78,0,0,1,25,3c2.64-1,5.29-2,7.93-3a26.73,26.73,0,0,1,16.81-.84,26.91,26.91,0,0,0-34.61-14.94q-28.33,11-57.6,20.55a1088.56,1088.56,0,0,1-188.5,43.21q1.17,6.62,2.44,13.21A1088.45,1088.45,0,0,0,817.88,298.76Z"/><path class="cls-7" d="M850.84,298.76q25.2-8.19,49.68-17.53a26.78,26.78,0,0,0-25-3q-28.34,11-57.6,20.55A1088.45,1088.45,0,0,1,647,339.4c.28,1.49.54,3,.83,4.48A1088.3,1088.3,0,0,0,850.84,298.76Z"/><path class="cls-8" d="M998.62,460,943.71,294.86a26.94,26.94,0,0,0-18.45-17.49c.23.57.47,1.12.66,1.71l54.9,165.11a27,27,0,0,1-15.44,33.44,27.09,27.09,0,0,1-18.64,17,1085.68,1085.68,0,0,0-232.26,90.5A1089.81,1089.81,0,0,0,817.26,758.2q18.11,24.9,37.35,48.43a26.93,26.93,0,0,1-4.93,38.69L843.27,850a26.8,26.8,0,0,1-8.77,11.06L694.94,964a26.93,26.93,0,0,0,32.45.37L867.47,861.1a26.93,26.93,0,0,0,4.93-38.69Q853.19,798.88,835.05,774A1089,1089,0,0,1,729.41,594.84h0a1085,1085,0,0,1,250.3-100.24A27,27,0,0,0,998.62,460Z"/><path class="cls-9" d="M711.62,579.05h0c.94,2,1.91,4,2.86,6a1085.68,1085.68,0,0,1,232.26-90.5,27.09,27.09,0,0,0,18.64-17,28.16,28.16,0,0,1-3.46,1.18A1085,1085,0,0,0,711.62,579.05Z"/><path class="cls-10" d="M908.45,278.21c-2.64,1-5.29,2-7.93,3a26.88,26.88,0,0,1,10.23,13.63L965.65,460a26.69,26.69,0,0,1-.27,17.66,27,27,0,0,0,15.44-33.44l-54.9-165.11c-.19-.59-.43-1.14-.66-1.71A26.73,26.73,0,0,0,908.45,278.21Z"/><path class="cls-11" d="M696.44,594.84h0A1089.06,1089.06,0,0,0,802.09,774q18.1,24.9,37.35,48.43A26.85,26.85,0,0,1,843.27,850l6.41-4.72a26.93,26.93,0,0,0,4.93-38.69q-19.23-23.55-37.35-48.43A1089.81,1089.81,0,0,1,714.48,585.09c-6,3.2-12.05,6.43-18,9.74Z"/><path class="cls-12" d="M688.75,957.23c-1-1.54-2-3.06-3-4.6A1084.72,1084.72,0,0,0,516,750l-.65.62q-8,7.47-15.83,15.15A1083.8,1083.8,0,0,1,655.78,957.23a26.93,26.93,0,0,0,38.65,7.11l.51-.37A26.67,26.67,0,0,1,688.75,957.23Z"/><path class="cls-13" d="M843.27,850,709.6,948.56a26.88,26.88,0,0,1-23.85,4.07c1,1.54,2,3.06,3,4.6a26.67,26.67,0,0,0,6.19,6.74L834.5,861.1A26.8,26.8,0,0,0,843.27,850Z"/><path class="cls-14" d="M482.31,749.38q-16.55,16.13-32.51,33A1087.72,1087.72,0,0,0,345.26,905.82q-16,22-30.6,44.47c-1.31,2-2.63,4-3.92,6a26.87,26.87,0,0,1-6.16,6.69l.8.58a26.93,26.93,0,0,0,38.32-7.27q16.46-25.56,34.52-50.48A1089.33,1089.33,0,0,1,499.47,765.75C494,760.44,482.31,749.38,482.31,749.38Z"/><path class="cls-15" d="M516,750c-5.66-5.51-12-10.38-17.79-15.78q-8,7.49-15.85,15.18l.66.62,0,0c.42.4.83.81,1.26,1.21l3.39,3.17,0,0c4,3.76,7.94,7.52,11.85,11.34C504.71,760.64,510.63,755,516,750Z"/><path class="cls-16" d="M89.55,277.91c2.56,1,5.13,1.95,7.69,2.93a27.09,27.09,0,0,1,25.28-2.93A1085.33,1085.33,0,0,0,351.8,339.47q1.21-6.44,2.36-12.89a1085.46,1085.46,0,0,1-249.43-64.45,27,27,0,0,0-35.29,15.92A27.11,27.11,0,0,1,89.55,277.91Z"/><path class="cls-17" d="M122.52,277.91a27.09,27.09,0,0,0-25.28,2.93A1085.14,1085.14,0,0,0,351,343.93h0c.28-1.49.55-3,.83-4.46A1085.33,1085.33,0,0,1,122.52,277.91Z"/><path class="cls-18" d="M156.19,853.68l-10.07-7.21a26.92,26.92,0,0,1-5.18-39A1084.9,1084.9,0,0,0,282.29,584.08a1088.44,1088.44,0,0,0-170.62-72Q82.39,502.58,53,494.85A26.79,26.79,0,0,1,35,479a26.91,26.91,0,0,1-18.53-34.13L69.08,279c.1-.33.24-.64.36-1A26.78,26.78,0,0,0,53.9,294.81L1.27,460.66A26.93,26.93,0,0,0,20,494.85q29.4,7.75,58.69,17.24a1088.55,1088.55,0,0,1,190.76,82.82h0A1084.62,1084.62,0,0,1,125.76,823.3a26.93,26.93,0,0,0,5.18,39L272.42,963.57a27,27,0,0,0,32.16-.58L163.91,862.25A26.86,26.86,0,0,1,156.19,853.68Z"/><path class="cls-19" d="M16.45,444.87A26.91,26.91,0,0,0,35,479a26.84,26.84,0,0,1-.74-18.34L86.87,294.81a26.56,26.56,0,0,1,10.37-14c-2.56-1-5.13-1.94-7.69-2.93a27.11,27.11,0,0,0-20.11.14c-.12.33-.26.64-.36,1Z"/><path class="cls-20" d="M284.65,579.13h0A1089.44,1089.44,0,0,0,93.88,496.3Q64.6,486.79,35.2,479.07L35,479a26.79,26.79,0,0,0,18,15.85q29.39,7.75,58.68,17.24a1088.44,1088.44,0,0,1,170.62,72c.78-1.65,1.58-3.29,2.36-5Z"/><path class="cls-21" d="M158.73,823.3A1085,1085,0,0,0,302.44,594.92h0q-10-5.52-20.15-10.83A1084.9,1084.9,0,0,1,140.94,807.52a26.92,26.92,0,0,0,5.18,39l10.07,7.21A26.89,26.89,0,0,1,158.73,823.3Z"/><path class="cls-22" d="M310.74,956.3c1.29-2,2.61-4,3.92-6a26.91,26.91,0,0,1-27.07-2.51l-131.4-94.1a26.86,26.86,0,0,0,7.72,8.57L304.58,963A26.87,26.87,0,0,0,310.74,956.3Z"/></svg>